<svg xmlns="http://www.w3.org/2000/svg" width="509" height="582" viewBox="0 0 509 582" version="1.1"><path d="M 58.314 259.488 C 53.846 261.397, 50.431 267.229, 48.644 276 C 47.804 280.125, 45.290 288.900, 43.058 295.500 C 38.591 308.708, 38.314 310.773, 40.453 314.909 C 43.171 320.166, 52.429 321.498, 56.325 317.194 C 59.436 313.755, 65.574 295.394, 68.088 282 C 68.759 278.425, 69.914 274.612, 70.654 273.527 C 72.908 270.224, 72.310 265.360, 69.250 262.112 C 65.864 258.518, 62.483 257.707, 58.314 259.488 M 0.215 317.250 L 0.500 327.500 4.833 327.812 C 8.456 328.072, 9.050 328.400, 8.456 329.812 C 8.065 330.740, 5.997 336, 3.861 341.500 L -0.024 351.500 0.238 369 L 0.500 386.500 6.556 380.383 C 13.706 373.162, 18.246 364.906, 23.894 348.860 C 26.148 342.458, 29.343 334.649, 30.996 331.508 C 36.030 321.938, 34.358 314.719, 26.330 311.365 C 21.564 309.373, 9.640 307, 4.400 307 L -0.070 307 0.215 317.250 M 83.923 365.923 C 78.911 370.935, 80.256 377.103, 88.805 388.303 C 92.677 393.376, 99 406.390, 99 409.288 C 99 410.263, 97.051 411.123, 93.065 411.908 C 85.362 413.423, 73.099 417.606, 71.081 419.406 C 68.573 421.644, 22.605 436.662, 10.750 439.117 L 0 441.343 0 454.299 L -0 467.256 4.250 466.577 C 16.427 464.633, 52.445 452.702, 81 441.154 C 87.875 438.374, 97.100 435.364, 101.500 434.467 C 105.900 433.569, 110.960 432.147, 112.744 431.306 C 118.947 428.384, 123.975 420.408, 123.994 413.460 C 124.006 409.192, 120.827 399.186, 116.928 391.222 C 114.043 385.329, 111.021 381.080, 106.438 376.474 C 102.897 372.916, 100 369.615, 100 369.139 C 100 368.662, 98.814 367.086, 97.364 365.636 C 93.575 361.848, 87.877 361.969, 83.923 365.923" stroke="none" fill="#070604" fill-rule="evenodd"/><path d="M 25.615 64.472 C 21.043 66.102, 14.788 71.873, 11.495 77.500 C 10.208 79.700, 7.041 89.767, 4.458 99.872 C -0.672 119.940, -0.812 123.114, 3.047 131.841 C 6.827 140.390, 13.083 145.030, 24.382 147.666 C 37.009 150.612, 48.755 144.407, 54.982 131.500 C 58.147 124.941, 64.990 97.107, 64.995 90.770 C 65.005 79.622, 59.351 71.092, 48.500 65.882 C 41.661 62.599, 32.462 62.032, 25.615 64.472 M 0 238.500 L 0 307 4.435 307 C 9.645 307, 21.577 309.379, 26.330 311.365 C 34.358 314.719, 36.030 321.938, 30.996 331.508 C 29.343 334.649, 26.148 342.458, 23.894 348.860 C 18.206 365.020, 13.611 373.355, 6.250 380.865 L 0 387.241 0 414.121 C 0 434.962, 0.281 440.998, 1.250 440.991 C 5.748 440.958, 27.858 434.867, 46.860 428.426 L 69.220 420.846 78.360 411.177 C 83.387 405.858, 88.917 400.043, 90.649 398.254 L 93.799 395.001 88.775 388.251 C 80.100 376.594, 78.877 370.969, 83.923 365.923 C 86.173 363.674, 87.761 363, 90.818 363 C 95.058 363, 96.949 364.438, 101.237 370.923 C 103.506 374.355, 106 376.048, 106 374.156 C 106 373.601, 107.616 369.648, 109.591 365.372 C 121.015 340.639, 124.041 305.187, 117.090 277.500 C 110.378 250.764, 99.795 231.333, 81.500 212.151 C 66.452 196.375, 52.331 186.709, 32 178.270 C 24.418 175.122, 5.879 170, 2.069 170 L 0 170 0 238.500 M 171.197 177.515 C 164.875 179.269, 165.233 179.087, 147.338 189.639 C 130.137 199.782, 126.275 203.957, 123.915 214.960 C 121.525 226.104, 128.510 240.184, 139.085 245.543 C 144.515 248.295, 154.275 248.879, 161.500 246.885 C 166.876 245.402, 192.535 230.092, 197.345 225.498 C 205.881 217.345, 207.995 204.582, 202.622 193.639 C 198.733 185.719, 194.954 181.657, 189.154 179.162 C 182.401 176.257, 177.390 175.797, 171.197 177.515 M 58.314 259.488 C 53.846 261.397, 50.431 267.229, 48.644 276 C 47.804 280.125, 45.290 288.900, 43.058 295.500 C 38.591 308.708, 38.314 310.773, 40.453 314.909 C 43.171 320.166, 52.429 321.498, 56.325 317.194 C 59.436 313.755, 65.574 295.394, 68.088 282 C 68.759 278.425, 69.914 274.612, 70.654 273.527 C 72.908 270.224, 72.310 265.360, 69.250 262.112 C 65.864 258.518, 62.483 257.707, 58.314 259.488 M -0 338.909 C -0 345.193, 0.185 350.146, 0.412 349.917 C 0.639 349.688, 2.378 345.450, 4.278 340.500 C 6.177 335.550, 8.047 330.760, 8.432 329.856 C 9.013 328.493, 8.351 328.150, 4.566 327.849 L 0 327.486 -0 338.909 M 160.994 331.934 C 154.255 333.984, 147.774 339.389, 144.729 345.500 C 142.289 350.395, 140.682 359.402, 141.405 364.128 C 142.460 371.022, 146.820 377.966, 152.641 382.025 C 156.744 384.886, 161.373 386.580, 175.583 390.424 C 191.101 394.621, 194.289 395.179, 200.442 394.777 C 212.238 394.007, 217.631 390.223, 222.929 379 C 228.172 367.897, 226.975 356.182, 219.803 348.402 C 213.649 341.726, 210.733 340.388, 191.702 335.510 C 174.513 331.104, 166.711 330.195, 160.994 331.934 M 63.500 454.314 C 54.424 457.019, 45.832 463.893, 42.861 470.825 C 40.497 476.339, 40.479 485.827, 42.818 492.500 C 45.340 499.694, 58.583 521.640, 63.708 527.119 C 71.165 535.091, 81.463 538.329, 90.191 535.447 C 104.214 530.815, 112.474 520.767, 112.342 508.500 C 112.257 500.605, 110.162 495.526, 99.690 477.838 C 90.860 462.922, 86.957 458.547, 79.838 455.581 C 74.850 453.503, 68.001 452.972, 63.500 454.314" stroke="none" fill="#fbab3b" fill-rule="evenodd"/></svg>