<?xml version="1.0" encoding="UTF-8"?>
<svg version="1.1" xmlns="http://www.w3.org/2000/svg" width="301" height="304">
<path d="M0 0 C2.46068851 2.17849946 4.79379456 4.43832581 7.1171875 6.76171875 C8.15939453 7.68017578 8.15939453 7.68017578 9.22265625 8.6171875 C20.45170256 18.80369179 28.15819985 36.0342992 29.29418945 51.11083984 C29.81379409 71.66731005 26.74973438 91.32293962 12.6171875 107.26171875 C11.12858422 108.77302953 9.62924587 110.27387484 8.1171875 111.76171875 C7.51648438 112.44363281 6.91578125 113.12554687 6.296875 113.828125 C-4.02785816 125.24790562 -20.09826488 132.95842463 -35.44726562 133.92285156 C-58.96708244 134.28638575 -78.00434303 131.07248661 -95.8828125 114.76171875 C-96.49125 114.24480469 -97.0996875 113.72789062 -97.7265625 113.1953125 C-111.92710065 100.31800631 -118.47145256 81.22867705 -120.16796875 62.63671875 C-120.78857033 42.77746808 -113.48194317 24.48977093 -100.5703125 9.57421875 C-74.51853081 -18.09487154 -30.77501593 -23.89442294 0 0 Z " fill="#FEAB32" transform="translate(193.8828125,92.23828125)"/>
<path d="M0 0 C4.44378781 5.67817332 4.56563586 11.26838628 4.5 18.1875 C4.51160156 19.3930957 4.51160156 19.3930957 4.5234375 20.62304688 C4.49077129 30.77407061 2.27754123 38.61503609 -3.75 46.875 C-6.375 49.375 -6.375 49.375 -8.75 50.875 C-9.348125 51.2875 -9.94625 51.7 -10.5625 52.125 C-14.05903822 53.3238131 -17.15825589 53.60092368 -20.75 52.875 C-29.02956867 48.8099901 -33.55862028 42.5635384 -38 34.75 C-38.36351562 34.12996094 -38.72703125 33.50992188 -39.1015625 32.87109375 C-40.74518874 29.99783735 -41.75 28.24043293 -41.75 24.875 C-42.41 24.875 -43.07 24.875 -43.75 24.875 C-45.39628913 21.58242173 -45.28827018 19.5232757 -44.75 15.875 C-42.49254429 13.00305061 -39.6885472 11.01502894 -36.75 8.875 C-35.87859375 8.17761719 -35.0071875 7.48023438 -34.109375 6.76171875 C-26.39701566 0.99852127 -8.88002384 -6.8618366 0 0 Z " fill="#080501" transform="translate(169.75,148.125)"/>
<path d="M0 0 C4.39055162 2.8621002 8.00293724 6.08040637 10 11 C10.68006768 16.8939199 9.40807488 21.23351791 6 26 C-7.01010499 41.35459158 -7.01010499 41.35459158 -16.2421875 42.20703125 C-21.41703528 42.02408209 -24.86006619 40.40546565 -28.55078125 36.80078125 C-31.44931065 33.19910455 -33.03625642 29.66225741 -32.97265625 24.9921875 C-31.91735906 18.94497887 -28.18771147 15.23373028 -24 11 C-23.17242187 10.1234375 -22.34484375 9.246875 -21.4921875 8.34375 C-14.90216267 1.49799286 -9.77668785 -3.0856656 0 0 Z " fill="#FEAB32" transform="translate(241,58)"/>
<path d="M0 0 C1.09441406 -0.02513672 1.09441406 -0.02513672 2.2109375 -0.05078125 C9.05310345 0.97886508 13.26686012 5.51982251 17.875 10.25 C18.49890625 10.87068359 19.1228125 11.49136719 19.765625 12.13085938 C24.11767629 16.53449748 26.89997575 19.76594342 27 26.1875 C26.89403548 30.99122497 25.86348768 33.63637885 22.625 37.3125 C18.19670311 41.21361868 15.81275577 42.40747025 9.890625 42.640625 C3.22807768 41.67570435 -1.04762035 37.13038251 -5.5625 32.5625 C-6.17802734 31.96695313 -6.79355469 31.37140625 -7.42773438 30.7578125 C-11.83742213 26.34334719 -14.90288696 22.296358 -15.66015625 15.90625 C-15.02726124 9.95481623 -12.97042868 6.19762823 -8.375 2.3125 C-5.51391034 0.57147181 -3.33887174 0.01757301 0 0 Z " fill="#FEAC32" transform="translate(216.375,211.6875)"/>
<path d="M0 0 C4.7344316 1.91391916 7.72684393 5.45368786 10 10 C10.27037128 14.09858275 10.23163672 18.20601043 10.25 22.3125 C10.270625 23.45396484 10.29125 24.59542969 10.3125 25.77148438 C10.31765625 26.87427734 10.3228125 27.97707031 10.328125 29.11328125 C10.3374707 30.12173096 10.34681641 31.13018066 10.35644531 32.16918945 C9.77749157 36.76711315 7.526809 39.92261593 3.9375 42.75 C-0.42054619 46.08807793 -3.58518182 46.5465424 -9 46 C-14.26594344 44.14143173 -16.79395768 41.39685804 -20 37 C-21.56198071 32.31405788 -21.22577748 27.59558823 -21.25 22.6875 C-21.270625 21.65431641 -21.29125 20.62113281 -21.3125 19.55664062 C-21.34119287 13.96511764 -21.25607746 9.77970515 -18 5 C-12.12397393 -0.30275523 -7.74365066 -0.61724752 0 0 Z " fill="#FEAC32" transform="translate(154,19)"/>
<path d="M0 0 C4.85620467 2.61487944 9.21884276 5.65652829 11 11 C11.28563869 15.09940765 11.27766471 19.20425792 11.3125 23.3125 C11.34150391 24.44107422 11.37050781 25.56964844 11.40039062 26.73242188 C11.44949255 33.14966549 11.35281018 37.13990743 7 42 C6.484375 42.598125 5.96875 43.19625 5.4375 43.8125 C1.82137151 46.79973658 -2.83602013 46.33197863 -7.2734375 46.2734375 C-11.18928893 45.88073034 -13.16210937 44.69945694 -16 42 C-20.43952073 35.90175724 -20.58387807 30.84611905 -20.4375 23.4375 C-20.44458984 22.42236328 -20.45167969 21.40722656 -20.45898438 20.36132812 C-20.40528181 14.0368182 -19.94190656 9.22537152 -15.5 4.35546875 C-10.50657638 0.46736025 -6.33001308 -0.87683293 0 0 Z " fill="#FEAC32" transform="translate(153,239)"/>
<path d="M0 0 C8.33141212 5.36438501 17.75431346 13.37217023 21 23 C21.79430483 28.10624531 20.22452135 31.06218669 17.4140625 35.16796875 C14.35928626 39.12567609 12.04888853 40.7248817 7.1875 42 C1.65509243 42.42303991 -2.72494062 39.8660048 -6.92407227 36.421875 C-8.79891282 34.66360869 -10.59482293 32.85386632 -12.375 31 C-13.29732422 30.07574219 -13.29732422 30.07574219 -14.23828125 29.1328125 C-18.46327048 24.8246178 -21.26130017 21.49597892 -21.5 15.25 C-21.37925858 9.41129003 -19.14251319 5.98062187 -15 2 C-10.16316699 -1.54701088 -5.57579258 -1.99260299 0 0 Z " fill="#FEAB32" transform="translate(68,58)"/>
<path d="M0 0 C4.9710149 2.53240382 8.49430567 5.98861134 11 11 C11.23828125 12.953125 11.23828125 12.953125 11.3125 15.25 C11.36857422 16.37148437 11.36857422 16.37148437 11.42578125 17.515625 C10.30607176 24.04897577 4.53033527 28.77653087 0 33.25 C-0.61617187 33.87390625 -1.23234375 34.4978125 -1.8671875 35.140625 C-2.46789062 35.73875 -3.06859375 36.336875 -3.6875 36.953125 C-4.22761719 37.49098633 -4.76773438 38.02884766 -5.32421875 38.58300781 C-9.26623496 41.91626278 -12.72700253 42.44022161 -17.75390625 42.31640625 C-22.48255434 41.65028365 -25.22821476 38.85522148 -28.3125 35.4375 C-30.86761631 31.74677643 -31.16982798 28.65228215 -31.42578125 24.23046875 C-30.21118687 17.8677771 -24.41655219 13.1111143 -20 8.75 C-19.38382813 8.12609375 -18.76765625 7.5021875 -18.1328125 6.859375 C-17.53210938 6.26125 -16.93140625 5.663125 -16.3125 5.046875 C-15.77238281 4.50901367 -15.23226562 3.97115234 -14.67578125 3.41699219 C-10.18023316 -0.38431334 -5.6897746 -0.80151607 0 0 Z " fill="#FEAC32" transform="translate(85,212)"/>
<path d="M0 0 C1.24523437 -0.01224609 2.49046875 -0.02449219 3.7734375 -0.03710938 C5.5678125 -0.04000977 5.5678125 -0.04000977 7.3984375 -0.04296875 C8.49591309 -0.04707764 9.59338867 -0.05118652 10.72412109 -0.05541992 C15.0589853 0.30758209 16.92559605 1.40816417 19.8125 4.625 C23.25968343 9.49860416 23.14303548 14.41510465 22.625 20.1875 C20.78382306 24.42220697 17.81235331 28.09382334 13.625 30.1875 C9.21426223 30.48658201 4.7946757 30.46565019 0.375 30.5 C-0.85347656 30.52900391 -2.08195312 30.55800781 -3.34765625 30.58789062 C-14.58851615 30.66705161 -14.58851615 30.66705161 -19.375 26.1875 C-22.92081036 22.15261235 -23.67860179 18.62088591 -23.58984375 13.24609375 C-23.11307026 8.67773683 -21.14937114 5.88632274 -17.8125 2.875 C-12.27467849 -0.95887643 -6.56759948 0.00337839 0 0 Z " fill="#FEAC32" transform="translate(259.375,136.8125)"/>
<path d="M0 0 C1.18916016 -0.020625 2.37832031 -0.04125 3.60351562 -0.0625 C4.75142578 -0.06765625 5.89933594 -0.0728125 7.08203125 -0.078125 C8.13237549 -0.0874707 9.18271973 -0.09681641 10.26489258 -0.10644531 C15.43163712 0.52369812 18.83177922 3.41489053 22.1875 7.25 C23.91562003 12.43436008 24.13230491 18.07694871 21.9375 23.125 C17.16047297 28.92567568 17.16047297 28.92567568 13.1875 30.25 C8.92137981 30.53688778 4.64967859 30.5277088 0.375 30.5625 C-0.80126953 30.59150391 -1.97753906 30.62050781 -3.18945312 30.65039062 C-13.9514367 30.72947812 -13.9514367 30.72947812 -18.8125 26.25 C-22.35831036 22.21511235 -23.11610179 18.68338591 -23.02734375 13.30859375 C-22.55057026 8.74023683 -20.58687114 5.94882274 -17.25 2.9375 C-11.83696663 -0.80998464 -6.42646598 0.0275962 0 0 Z " fill="#FEAB32" transform="translate(37.8125,136.75)"/>
<path d="M0 0 C0.99386719 0.00902344 1.98773438 0.01804688 3.01171875 0.02734375 C4.15060547 0.04474609 4.15060547 0.04474609 5.3125 0.0625 C5.45935185 3.39535926 5.54707648 6.72737345 5.625 10.0625 C5.66689453 10.99707031 5.70878906 11.93164062 5.75195312 12.89453125 C5.86959615 19.62371225 4.59853683 23.83574564 0.3125 29.0625 C-1.6875 31.0625 -1.6875 31.0625 -3.9375 31.125 C-11.68734313 28.13074243 -16.21432394 18.09105747 -19.6875 11.0625 C-19.6875 10.0725 -19.6875 9.0825 -19.6875 8.0625 C-17.38671875 6.2734375 -17.38671875 6.2734375 -14.375 4.4375 C-13.38886719 3.82648438 -12.40273437 3.21546875 -11.38671875 2.5859375 C-7.38379576 0.32669008 -4.52603797 -0.05324751 0 0 Z " fill="#FAA932" transform="translate(156.6875,158.9375)"/>
<path d="M0 0 C1.3921875 0.3403125 1.3921875 0.3403125 2.8125 0.6875 C4.95101402 6.8603738 6.3602728 13.08015731 7.5 19.5 C7.63124268 20.22888428 7.76248535 20.95776855 7.89770508 21.70874023 C9.57925122 31.5171955 9.57925122 31.5171955 7.625 34.5 C5.16342224 36.11275784 3.70184264 36.1209014 0.8125 35.6875 C-2.01136874 33.47978766 -2.70234 31.58691231 -3.35546875 28.1171875 C-3.61166992 26.77140625 -3.61166992 26.77140625 -3.87304688 25.3984375 C-4.03869141 24.46257812 -4.20433594 23.52671875 -4.375 22.5625 C-4.64086914 21.19351563 -4.64086914 21.19351563 -4.91210938 19.796875 C-7.14127212 7.71291942 -7.14127212 7.71291942 -6.1875 2.6875 C-4.05269444 -0.17602272 -3.71052546 -0.36377701 0 0 Z " fill="#0A0702" transform="translate(179.1875,115.3125)"/>
<path d="M0 0 C2.9375 0.875 2.9375 0.875 4.9375 3.875 C5.51996599 6.19371628 6.03348306 8.53020283 6.5 10.875 C7.51103137 15.93032042 7.51103137 15.93032042 8.9375 20.875 C9.38531145 27.14436027 9.38531145 27.14436027 7.75 29.8125 C5.27700907 31.26218434 3.75865488 31.29817323 0.9375 30.875 C-4.56590433 26.79584353 -4.62967683 17.744093 -5.578125 11.45703125 C-6.47439196 3.45882284 -6.47439196 3.45882284 -4.76171875 1.03125 C-3.0625 -0.125 -3.0625 -0.125 0 0 Z " fill="#0B0702" transform="translate(105.0625,147.125)"/>
</svg>
